<svg xmlns="http://www.w3.org/2000/svg" width="56" height="33" viewBox="0 0 56 33">
  <g id="AmericanExpress-light" transform="translate(0.012)">
    <rect id="Rectangle" width="56" height="33" rx="4" transform="translate(-0.012)" fill="#fff"/>
    <path id="EXPRESS" d="M10.932,6.241h0l-3.493,0-.859-.97-.911.97H0V0H5.776l.829.955L7.49,0h3.867a2.414,2.414,0,0,1,1.51.365V0h3.455a2.884,2.884,0,0,1,1.445.365V0h5.238V.365A2.053,2.053,0,0,1,24.286,0h2.933V.365A2.255,2.255,0,0,1,28.56,0h1.984V.89H28.409c-1.133,0-1.537.688-1.537,1.331,0,1.322,1.095,1.351,2.061,1.378l.2.006a.543.543,0,0,1,.377.1.37.37,0,0,1,.131.3.393.393,0,0,1-.127.292.6.6,0,0,1-.434.11H27.02V5.36h2.07a1.672,1.672,0,0,0,1.454-.572V5.951a3.719,3.719,0,0,1-1.572.288H26.2v-.4a2.469,2.469,0,0,1-1.458.4H15.984V4.8c0-.178-.019-.184-.2-.184H15.65V6.238H12.768V4.555a3.43,3.43,0,0,1-1.347.221h-.489V6.241ZM22.819,4.4h0V5.36h2.088c1.117,0,1.683-.475,1.683-1.41A1.248,1.248,0,0,0,26.269,3a1.715,1.715,0,0,0-1.224-.36l-.577-.015a1.211,1.211,0,0,1-.417-.051.34.34,0,0,1-.235-.333.343.343,0,0,1,.161-.322.729.729,0,0,1,.429-.081h1.966V.89H24.225c-1.13,0-1.532.688-1.532,1.331,0,1.322,1.093,1.351,2.057,1.378l.2.006a.566.566,0,0,1,.382.1.384.384,0,0,1,.131.3.4.4,0,0,1-.126.292.622.622,0,0,1-.438.11H22.819ZM18.6.89V5.36h3.577V4.433l-2.509,0v-.89h2.448V2.627H19.668V1.814h2.509V.89ZM14.769,3.727h1.145a1.045,1.045,0,0,1,.786.2,1.155,1.155,0,0,1,.174.791c0,.029,0,.057,0,.084V5.36h1.076V4.474a1.3,1.3,0,0,0-.178-.816,1.159,1.159,0,0,0-.525-.376,1.261,1.261,0,0,0,.76-1.189,1.053,1.053,0,0,0-.551-.993A2.613,2.613,0,0,0,16.166.89H13.692V5.36h1.077V3.728ZM6.584,3.88h0L7.9,5.36H9.986v-1.5h1.337c1.256,0,1.866-.49,1.866-1.5a1.306,1.306,0,0,0-.584-1.2A2.3,2.3,0,0,0,11.383.89H7.959L6.6,2.355,5.277.89H.968V5.36H5.212L6.584,3.88ZM8.919,4.954h0L7.273,3.133,8.919,1.369V4.952ZM4.67,4.429H2.035v-.89H4.388V2.627H2.035V1.814H4.722l1.172,1.3L4.67,4.429ZM30.544,3.113h0L30.531,3.1A.477.477,0,0,0,30.444,3a1.686,1.686,0,0,0-1.216-.36l-.581-.016a1.226,1.226,0,0,1-.413-.05A.338.338,0,0,1,28,2.243a.345.345,0,0,1,.157-.321.741.741,0,0,1,.433-.081h1.953V3.113Zm-19.173-.16H9.986V1.814h1.4c.3,0,.655.1.655.548C12.039,2.737,11.8,2.953,11.371,2.953Zm4.7-.134h-1.3v-1h1.319a1.046,1.046,0,0,1,.511.081.426.426,0,0,1,.222.4.483.483,0,0,1-.222.429A1.034,1.034,0,0,1,16.071,2.818Z" transform="translate(16.493 17.321)" fill="#0072ce"/>
    <path id="AMERICAN" d="M9.374,6.237H7.5l-.321-.762v.759H3.58l-.412-.993H2.244l-.412.993H0V2.964L1.3,0H4.092l.36.736V0H7.729l.717,1.61L9.144,0h10.4a1.735,1.735,0,0,1,1.21.364V0H23.6V.364A3.7,3.7,0,0,1,25.392,0h4.126L29.9.736V0h3.055l.417.736V0H36.35V6.234H33.342l-.568-.943v.943H29.02l-.407-.993h-.924l-.417.993H25.323A3.651,3.651,0,0,1,23.6,5.855v.379h-4.63V4.819c0-.2-.038-.211-.157-.215h-.174l0,1.629H9.7v-.77l-.321.773ZM31.846,2V2l2.03,3.353H35.4V.887H34.3V4L32.414.887H30.782V5.114L28.968.887H27.363L25.852,4.4h-.481a1.05,1.05,0,0,1-.747-.23,1.543,1.543,0,0,1-.3-1.05,1.477,1.477,0,0,1,.308-1.012,1.023,1.023,0,0,1,.824-.265h1.015V.887H25.44a2.17,2.17,0,0,0-1.627.521,2.343,2.343,0,0,0-.578,1.748,2.247,2.247,0,0,0,.573,1.706,2.321,2.321,0,0,0,1.554.495h1.254l.4-1h2.226l.417,1h2.183V2ZM21.617.887v4.47H22.71V.887ZM17.762,3.73h1.151a1.058,1.058,0,0,1,.781.192,1.175,1.175,0,0,1,.17.785c0,.029,0,.058,0,.085l0,.564h1.081V4.478a1.283,1.283,0,0,0-.177-.82,1.229,1.229,0,0,0-.53-.377A1.265,1.265,0,0,0,21,2.09a1.048,1.048,0,0,0-.542-.99,2.511,2.511,0,0,0-1.3-.214H16.691v4.47h1.071V3.731ZM12.368.887v4.47h3.58V4.432H13.44V3.539h2.448V2.623H13.44V1.817h2.508V.887Zm-1.9.971h0l0,3.5h1.1V.887H9.786L8.5,3.918,7.095.887H5.346V5.118L3.524.887H1.932L.012,5.356H1.177l.416-1H3.824l.411,1h2.18v-3.5l1.558,3.5h.941Zm18.415,1.57H27.4l.737-1.782.741,1.781Zm-25.444,0H1.974L2.7,1.646l.733,1.781ZM19.064,2.81h-1.3V1.817h1.319a1.1,1.1,0,0,1,.508.081.411.411,0,0,1,.225.4.459.459,0,0,1-.221.425A1,1,0,0,1,19.064,2.81Z" transform="translate(8.912 9.632)" fill="#0072ce"/>
  </g>
</svg>
