<svg xmlns="http://www.w3.org/2000/svg" width="1160" height="320.16" viewBox="0 0 1160 320.16">
  <g id="Group_11521" data-name="Group 11521" transform="translate(-380 -169.533)" opacity="0.44">
    <g id="Group_12" data-name="Group 12" transform="translate(518.22 224.646)" opacity="0.19">
      <path id="Path_39" data-name="Path 39" d="M66.675,229.77a4.929,4.929,0,0,1,6.537-.627c-5.373-7.164-16.747-17.463-27.4-23.553-2.328-.358-3.94.448-4.209,3.045C50.914,214.1,61.839,222.516,66.675,229.77Z" transform="translate(-4.345 0)" fill="#2c3a56"/>
      <g id="Group_10" data-name="Group 10" transform="translate(0 229.86)">
        <path id="Path_40" data-name="Path 40" d="M7.881,255c-4.746-.806-4.209-7.523-4.657-10.03L0,245.238l.9-5.194,1.164-.09-.716,4.03,2.776-.179.09.537c.627,3.851.9,8.955,3.851,9.582h0c.806.09,1.791-1.97,2.687-3.582.985-1.97,1.881-3.851,3.224-4.209.985-.269,1.97.627,2.955,1.522.537.537,1.522,1.433,1.881,1.254.985-.358,2.866-3.94,3.94-6.269l.179-.269,43.792-3.4,1.075-6.269a2.253,2.253,0,0,1,1.075.627L67.7,240.043l-43.971,3.4c-.716,1.522-2.866,6-4.478,6.627-.985.358-1.97-.537-3.045-1.522-.627-.537-1.522-1.433-1.881-1.254-.806.179-1.791,2.06-2.508,3.582-1.254,2.239-2.239,4.3-3.94,4.12Z" transform="translate(0 -232.7)" fill="#2c3a56"/>
      </g>
      <g id="Group_11" data-name="Group 11" transform="translate(0.985 209.979)">
        <path id="Path_41" data-name="Path 41" d="M32.1,218.475a10.732,10.732,0,0,0-.985-1.075L28.7,219.191a14.367,14.367,0,0,1,3.4,3.045,4.485,4.485,0,0,0,.627-.716A3.026,3.026,0,0,0,32.1,218.475Z" transform="translate(-3.983 -211.221)" fill="#2c3a56"/>
        <path id="Path_42" data-name="Path 42" d="M36.832,210.5l-7.881,5.731a10.79,10.79,0,0,1,1.433,1.522,3.668,3.668,0,0,1,.627,3.94,2.99,2.99,0,0,1-.985,1.164,4.087,4.087,0,0,1,.09,3.672c-.985,2.06-3.851,3.224-7.791,3.314a24.847,24.847,0,0,1-4.388-.358,22.468,22.468,0,0,1-5.284-1.612L1.1,236.2l59.374-5.911C55.191,223.217,47.489,216.59,36.832,210.5Zm-25.7,21.941-1.522,1.343L8,233.515l2.418-1.97L14,232.709Zm20.508-16.12,3.761.179.09,3.134-2.149-.627Zm8.329,11.373c-.269-.179-1.164,3.134-1.164,3.134a3.513,3.513,0,0,0-3.134-.09l1.522-3.761s-4.03.358-3.672-.627c1.254-2.866,10.388-3.672,9.941.627C42.922,231.366,40.235,227.873,39.966,227.694Zm2.508-8.06-1.075.985-1.343-.179,1.612-3.224,2.418.358,1.791,3.851Zm6.9,8.687,3.134-2.149,2.328,1.7-2.239,1.433Z" transform="translate(-1.1 -210.5)" fill="#2c3a56"/>
        <path id="Path_43" data-name="Path 43" d="M26.34,224.03a9.462,9.462,0,0,0,4.209-.9.465.465,0,0,1-.179-.358A13.248,13.248,0,0,0,27.325,220L22.4,223.582c.179,0,.358.09.537.09A14.163,14.163,0,0,0,26.34,224.03Z" transform="translate(-3.325 -211.492)" fill="#2c3a56"/>
        <path id="Path_44" data-name="Path 44" d="M23.5,229.588c3.4-.09,6-1.075,6.806-2.687a2.87,2.87,0,0,0,.179-1.7,10.307,10.307,0,0,1-4.388.9,26.273,26.273,0,0,1-3.672-.269,20.3,20.3,0,0,1-2.239-.537L15.8,228.424a23.285,23.285,0,0,0,3.582.9A21.24,21.24,0,0,0,23.5,229.588Z" transform="translate(-2.636 -212.036)" fill="#2c3a56"/>
      </g>
    </g>
    <g id="Group_8" data-name="Group 8" transform="translate(859.707 62.097)" opacity="0.33">
      <path id="Path_27" data-name="Path 27" d="M450.76,154.994a2.871,2.871,0,0,1-1.791,3.744l-40.864,14.245a2.871,2.871,0,0,1-3.744-1.791l-1.3-3.744a2.871,2.871,0,0,1,1.791-3.744l40.864-14.245a2.871,2.871,0,0,1,3.744,1.791Z" transform="translate(-1.782 -6.263)" fill="#2c3a56"/>
      <path id="Path_28" data-name="Path 28" d="M446.155,134.638a2.871,2.871,0,0,1-1.791,3.744l-46.4,16.2a2.871,2.871,0,0,1-3.744-1.791l-.163-.488a2.871,2.871,0,0,1,1.791-3.744l46.4-16.2a2.871,2.871,0,0,1,3.744,1.791Z" transform="translate(-0.108 -3.083)" fill="#2c3a56"/>
      <path id="Path_29" data-name="Path 29" d="M450.254,143.261c-.977,3.093-2.93-.488-5.21.57-.977.488-1.221,2.116-2.6,2.686-1.221.488-3.582-.081-5.128.57-1.3.488-1.465,2.2-2.93,2.686-1.14.407-3.582-.244-4.8.244-1.14.407-1.791,1.628-3.012,2.035-1.058.407-2.6-.081-3.744.326-2.035.733-4.314,2.93-6.268,3.582-1.547.488-2.849-.488-4.314,0-1.791.57-3.582,2.849-5.21,3.337-2.523.733-4.64-.326-6.349.081-2.686.733-2.116,4.4-4.884,3.419-.163-.081,1.058-3.337,2.279-3.907,3.744-1.872,13.268-4.314,24.013-8.059,10.175-3.5,18.641-7.408,23.118-8.466C447.242,141.8,450.336,143.017,450.254,143.261Z" transform="translate(-0.463 -4.95)" fill="#2c3a56"/>
      <path id="Path_30" data-name="Path 30" d="M411.94,117.391c-12.861,4.477-20.35,16.362-18.315,22.223s11.64.081,24.5-4.4,24.013-5.942,21.9-11.8C438.07,117.554,424.8,112.914,411.94,117.391ZM399.4,138.067a.953.953,0,1,1,.57-1.221A1,1,0,0,1,399.4,138.067Zm.977-6.105a.644.644,0,1,1,.407-.814A.672.672,0,0,1,400.381,131.962Zm3.989,1.3a.953.953,0,1,1,.57-1.221A.968.968,0,0,1,404.369,133.264ZM403.311,127a1.081,1.081,0,1,1,.651-1.384A1,1,0,0,1,403.311,127Zm7.815,4.4a1.416,1.416,0,1,1,.9-1.791A1.428,1.428,0,0,1,411.126,131.392Zm.081-7.082a.953.953,0,1,1,.57-1.221A.968.968,0,0,1,411.207,124.31Zm9.28-1.954a.644.644,0,1,1-.407.814C419.917,122.845,420.161,122.519,420.487,122.357Zm-7.245-3.337a.953.953,0,1,1,1.221.57A.855.855,0,0,1,413.242,119.019Zm4.558,5.454a1.158,1.158,0,1,1,.733-1.465A1.186,1.186,0,0,1,417.8,124.473Zm4.8,5.21a1.416,1.416,0,1,1,.9-1.791A1.428,1.428,0,0,1,422.6,129.683Zm1.465-11.233a.644.644,0,1,1,.407-.814C424.638,117.961,424.394,118.286,424.068,118.449Zm2.035,3.744a.953.953,0,1,1,1.221.57A.968.968,0,0,1,426.1,122.194Zm3.582,5.373a.644.644,0,1,1,.407-.814C430.255,127,430.092,127.4,429.685,127.566Zm.733-4.151a.824.824,0,0,1-.57-1.547.814.814,0,0,1,1.058.488A.847.847,0,0,1,430.418,123.415Zm6.024.651a.644.644,0,1,1,.407-.814A.672.672,0,0,1,436.441,124.066Z" fill="#2c3a56"/>
    </g>
    <g id="Group_24" data-name="Group 24" transform="translate(1311.252 199.85)" opacity="0.33">
      <g id="Group_23" data-name="Group 23" transform="translate(183.033 88.9)">
        <path id="Path_80" data-name="Path 80" d="M200.72,138.488c.167-.418.418-.752.585-1.17.418-.752.752-1.588,1.086-2.34.668-1.588,1.42-3.092,2.172-4.679l-1.755.5c-.585,1.17-1.17,2.423-1.755,3.676a10.4,10.4,0,0,1-.836,1.671v-1l.251-1a21.586,21.586,0,0,1,.668-2.172,8.662,8.662,0,0,0,.334-.836c-1.5.5-2.924,1.086-4.011,1.5a19.284,19.284,0,0,1-2.34.836c-.167,1.086-.251,2.089-.5,3.175a42.239,42.239,0,0,1-1.42,5.6l6.1,1.5a41.666,41.666,0,0,0,.585-4.512C200.469,139.157,200.553,138.739,200.72,138.488Z" transform="translate(-184.705 -95.708)" fill="#2c3a56"/>
        <path id="Path_81" data-name="Path 81" d="M183.089,98.008c-.334,1.42.919,2.924,1.253,4.345s-.251,3.259.585,4.512c.752,1.17,2.757,1.42,3.927,2.423,1.086.919,1.671,2.757,3.008,3.426a3.351,3.351,0,0,0,1.588.251.753.753,0,0,0,.084.418c.5-.5,1-1,1.5-1.42a2.313,2.313,0,0,1-.752-.084,2.456,2.456,0,0,1-1.671-3.008,2.029,2.029,0,0,1,1.17-1.42l-.251.5a2.042,2.042,0,0,0,1.337,2.507,1.831,1.831,0,0,0,2.005-.585h0a1.347,1.347,0,0,0,.334-.585v.167l1-1.253a.292.292,0,0,0-.084-.167,2.538,2.538,0,0,1-.585-.418,2.5,2.5,0,0,1-.167-3.509,1.5,1.5,0,0,1,.585-.418,7.789,7.789,0,0,0,.167-1.17,5.347,5.347,0,0,0-.418-1.42,6.636,6.636,0,0,1-.668-2.674c-.084,0-.167-.084-.334-.084a2.832,2.832,0,0,0-1.588,5.431,2.437,2.437,0,0,1-1.337-.084A3.445,3.445,0,0,1,195.455,97a3.123,3.123,0,0,1,1.671,1,1.06,1.06,0,0,1,.084-.5,6.879,6.879,0,0,1,2.172-3.342,7.555,7.555,0,0,0,.836-.919,8.149,8.149,0,0,0,.5-1.17,5.935,5.935,0,0,1,.668-1.5c-1.253-.5-2.423-1.671-3.676-1.671-1.5,0-2.841,1.42-4.261,1.671-1.5.334-3.342-.334-4.6.334-1.337.752-1.671,2.674-2.59,3.76C185.261,95.835,183.423,96.587,183.089,98.008Zm13.954-7.353a1.8,1.8,0,0,1,2.423.836,1.677,1.677,0,0,1,.084,1.42c0-.167-.084-.251-.167-.418a1.432,1.432,0,0,0-2.005-.668,1.528,1.528,0,0,0-.752,1.838,1.5,1.5,0,0,1-.418-.585A1.934,1.934,0,0,1,197.043,90.655Zm-8.021,10.779a2.216,2.216,0,0,0-.5.418,2.244,2.244,0,0,0,.084,3.175,2.287,2.287,0,0,0,3.008,0,2.163,2.163,0,0,1-.585.919,2.661,2.661,0,1,1-3.927-3.593A3.182,3.182,0,0,1,189.021,101.433Zm1.253-9.108a2.271,2.271,0,0,1,3.092.585,2.352,2.352,0,0,1,.334,1.671c-.084-.167-.084-.334-.251-.5a1.864,1.864,0,0,0-2.59-.5A1.932,1.932,0,0,0,190.275,96a1.952,1.952,0,0,1-.585-.585A2.256,2.256,0,0,1,190.275,92.326ZM187.267,97a1.641,1.641,0,0,1,1.253.418c-.167,0-.251-.084-.418,0a1.553,1.553,0,0,0-1.337,1.588,1.45,1.45,0,0,0,1.42,1.337,1.574,1.574,0,0,1-.668.167,1.693,1.693,0,0,1-1.838-1.588A1.722,1.722,0,0,1,187.267,97Z" transform="translate(-183.033 -88.9)" fill="#2c3a56"/>
      </g>
      <path id="Path_82" data-name="Path 82" d="M224.041,125.41c1-.585,1-2.34,1.671-3.175.752-.836,2.34-1.253,2.757-2.256.418-1.086-.668-2.423-.585-3.509s1.17-2.34.919-3.509c-.251-1.086-1.922-1.588-2.507-2.59-.084-.084-.084-.167-.167-.334-.084-.251-.167-.5-.251-.836a4.519,4.519,0,0,0-.752-2.256c0-.084-.084-.251-.084-.334-.167-1.42.836-3.092.334-4.6-.5-1.337-2.256-2.172-3.008-3.426-.752-1.337-.668-3.259-1.671-4.261-1.086-1.086-3.008-1.086-4.178-1.838-1.253-.836-2.089-2.59-3.426-3.008-1.5-.418-3.092.668-4.512.836-1.5.167-3.259-.585-4.512.167s-1.42,2.757-2.256,4.011c-.752,1.17-2.507,2.089-2.757,3.593-.251,1.42.919,2.924,1.086,4.428.167,1.42-.836,3.092-.334,4.6a2.732,2.732,0,0,0,.919,1.253c-1.253,1.5-2.089,2.674-3.259,4.011a53.427,53.427,0,0,1-8.94,7.687c-1.588,1.086-3.259,2.089-4.93,3.008l3.259,5.431a29.225,29.225,0,0,0,3.593-2.757,1.959,1.959,0,0,0,1-.167c.418-.167.836-.251,1.253-.418a20.791,20.791,0,0,0,2.423-.919,47.748,47.748,0,0,1,4.846-1.755,19.849,19.849,0,0,1,5.013-1.086A8.326,8.326,0,0,1,210,122.486a2.722,2.722,0,0,0,.668,1.588c.836.752,2.507.334,3.509.752,1,.5,1.755,2.005,2.924,2.172,1.086.167,2.172-1.17,3.259-1.42C221.534,125.16,223.038,126,224.041,125.41Zm.585-8.69a1.717,1.717,0,0,1,.251,3.426,1.641,1.641,0,0,1-1.253-.418c.167,0,.251.084.418,0a1.553,1.553,0,0,0,1.337-1.588,1.45,1.45,0,0,0-1.42-1.337C224.208,116.8,224.459,116.72,224.626,116.72Zm.836-4.763a1.71,1.71,0,0,1,1.755,1.5,1.681,1.681,0,0,1-1.253,2.005,1.5,1.5,0,0,1-1.17-.334h.334a1.349,1.349,0,0,0,1-1.671,1.3,1.3,0,0,0-1.337-1.253A2.829,2.829,0,0,0,225.461,111.958Zm-5.849,4.011a2.526,2.526,0,0,0-1.42-3.092,2.655,2.655,0,0,1,1.17.167,3.039,3.039,0,1,1-1.922,5.765,2.884,2.884,0,0,1-1.755-1.5,1.68,1.68,0,0,0,.668.334A2.592,2.592,0,0,0,219.612,115.968Zm3.76-6.768a2.265,2.265,0,0,1-.585,3.259,1.977,1.977,0,0,1-1.671.167,1.188,1.188,0,0,0,.5-.167,1.946,1.946,0,0,0,.418-2.757,2.162,2.162,0,0,0-2.507-1,1.952,1.952,0,0,1,.585-.585A2.524,2.524,0,0,1,223.372,109.2Zm.084-6.852a2.089,2.089,0,0,1-.836,2.841,2.121,2.121,0,0,1-1.588.167,1.188,1.188,0,0,0,.5-.167,1.672,1.672,0,0,0,.668-2.34,1.733,1.733,0,0,0-2.172-.752,1.3,1.3,0,0,1,.668-.5A1.919,1.919,0,0,1,223.456,102.349Zm-4.261-7.186a1.77,1.77,0,0,1,1.086,2.256,1.576,1.576,0,0,1-.919,1,.638.638,0,0,0,.167-.418,1.56,1.56,0,0,0-.919-1.922,1.455,1.455,0,0,0-1.838.836,1.629,1.629,0,0,1,.084-.668A1.829,1.829,0,0,1,219.195,95.163Zm-6.016-3.676a2.246,2.246,0,0,1,1.755,2.59,2.367,2.367,0,0,1-.919,1.42,1.188,1.188,0,0,0,.167-.5,1.876,1.876,0,0,0-1.42-2.172,1.79,1.79,0,0,0-2.089,1.253,1.424,1.424,0,0,1,0-.836A2.181,2.181,0,0,1,213.179,91.487Zm-7.854,1.337a1.644,1.644,0,0,1,2.423-.167,1.756,1.756,0,0,1,.585,1.17c-.084-.084-.167-.251-.251-.334a1.443,1.443,0,0,0-2.005.167,1.415,1.415,0,0,0,.084,1.922,1.347,1.347,0,0,1-.585-.334A1.721,1.721,0,0,1,205.324,92.824Zm-1.253,8.857a2.675,2.675,0,0,1-.167-5.348,2.647,2.647,0,0,1,1.922.752,1.629,1.629,0,0,0-.668-.084,2.25,2.25,0,0,0-2.172,2.34,2.2,2.2,0,0,0,2.089,2.172A3.116,3.116,0,0,1,204.071,101.68Zm4.6-4.345a3.33,3.33,0,0,1,4.679,1.17,3.6,3.6,0,0,1,.418,2.59,2.968,2.968,0,0,0-.334-.752,2.85,2.85,0,0,0-3.927-.919,2.815,2.815,0,0,0-1.086,3.676,3.468,3.468,0,0,1,.251-5.765Zm-6.6,10.779a2.354,2.354,0,0,1,2.757-3.426,2.125,2.125,0,0,0-.585.167,1.948,1.948,0,0,0-.752,2.757,1.924,1.924,0,0,0,2.507.836,1.82,1.82,0,0,1-.752.585A2.287,2.287,0,0,1,202.066,108.114Zm-.585,2.172c1.588,1.5,1.17,1.253,1.253,1.5-.919.334-7.687,5.013-7.687,5.013A76.241,76.241,0,0,0,201.481,110.287Zm8.523-.418a2.508,2.508,0,1,1-.167-5.013,2.538,2.538,0,0,1,1.755.668,1.422,1.422,0,0,0-.585-.084,2.093,2.093,0,0,0-.084,4.178A1.5,1.5,0,0,1,210,109.869Zm6.935-5.765a2.518,2.518,0,0,0-3.259-.919,2.98,2.98,0,0,1,.919-.836,3.038,3.038,0,1,1,3.175,5.18,3.322,3.322,0,0,1-2.34.334,5.754,5.754,0,0,0,.668-.251A2.575,2.575,0,0,0,216.939,104.1Zm-9.358,10.444a2.468,2.468,0,0,0,3.509.585,2.594,2.594,0,0,0,.752-3.342,2.014,2.014,0,0,1,.836.836,3.06,3.06,0,1,1-5.013,3.509,2.779,2.779,0,0,1-.5-2.256C207.33,114.13,207.413,114.3,207.58,114.548Zm.084,6.016a11,11,0,0,0-2.841-.334,21.7,21.7,0,0,0-5.264.919c-1.671.5-3.342,1.086-4.93,1.671-.585.251-1.17.418-1.755.668a5.041,5.041,0,0,0,.668-.668c.334-.167.585-.334.919-.5l2.005-1a23.364,23.364,0,0,1,4.261-1.5,15.675,15.675,0,0,1,4.428-.5,15.133,15.133,0,0,1,4.094.919l.251.251a2.819,2.819,0,0,1,.334,1A6.321,6.321,0,0,0,207.664,120.564Zm3.844,2.507a1.644,1.644,0,0,1-.167-2.423,1.756,1.756,0,0,1,1.17-.585c-.084.084-.251.167-.334.251a1.443,1.443,0,0,0,.167,2.005,1.415,1.415,0,0,0,1.922-.084,1.347,1.347,0,0,1-.334.585A1.721,1.721,0,0,1,211.508,123.071Zm6.684,1.588a2.037,2.037,0,0,1-2.507-1.5,1.79,1.79,0,0,1,.251-1.588,1.06,1.06,0,0,0,.084.5,1.705,1.705,0,0,0,3.342-.668,2.968,2.968,0,0,1,.334.752A2.145,2.145,0,0,1,218.192,124.658Zm3.008-1.086a1.758,1.758,0,0,1-.418-1.253,1.153,1.153,0,0,0,.251.334,1.431,1.431,0,0,0,2.256-1.755,2.54,2.54,0,0,1,.585.418,1.713,1.713,0,0,1-.167,2.423A1.734,1.734,0,0,1,221.2,123.572Z" transform="translate(-0.093 -0.08)" fill="#2c3a56"/>
    </g>
    <path id="Path_71" data-name="Path 71" d="M196.356,291.267a2.416,2.416,0,0,0-3.291.951l-6.509,11.629-.146-.293,4.022-18.65a2.467,2.467,0,1,0-4.827-1.024L182.9,296.606l-.878-1.828.658-1.755a2.431,2.431,0,0,0-3.145-3.145l-2.852-5.631a2.453,2.453,0,0,0-4.388,2.194l4.315,8.63-.8,2.267-4.827-13.676a2.452,2.452,0,0,0-4.608,1.682l6.8,19.088-.585,1.609L168.2,300.19l-.366-8.849a2.452,2.452,0,1,0-4.9.219l.073,1.755-1.1-1.463a2.457,2.457,0,1,0-3.949,2.925l5.339,7.094.219,4.461-8.337-12.067a2.415,2.415,0,0,0-3.949,2.779l3.657,5.266a2.269,2.269,0,0,0-1.316.658,2.5,2.5,0,0,0-.073,3.437l7.314,7.533-1.316.439L172,343.413l30.571-10.824-8.557-30.424-1.024.366,4.388-7.9A2.575,2.575,0,0,0,196.356,291.267Zm-18.065,13.091,1.316-3.51,1.609,3.291-.585,2.56-1.39.512Zm-9.8,4.315,1.463,1.9-1.316.512Zm30.644,22.087-25.671,9.069-1.39-3.145,26.036-9.215Zm-1.316-4.681-26.256,9.288-1.17-2.706,26.621-9.435Zm-1.17-4.169-26.768,9.508-1.17-2.706,27.133-9.654Zm-1.17-4.169-27.353,9.727-1.17-2.706,27.718-9.8Zm-1.17-4.242-27.865,9.873-1.17-2.706,28.23-10.02Zm-1.243-4.169-28.377,10.093-1.463-3.437,28.889-10.239Z" transform="translate(229.226 3.077)" fill="#2c3a56" opacity="0.33"/>
    <g id="bottle_2_" data-name="bottle (2)" transform="matrix(0.891, -0.454, 0.454, 0.891, 1317.033, 436.369)" opacity="0.33">
      <path id="Path_12933" data-name="Path 12933" d="M128,224h20.819v27.758H128Zm0,0" transform="translate(-110.456 -191.706)" fill="#2c3a56"/>
      <path id="Path_12934" data-name="Path 12934" d="M160,8h11.567V12.63H160Zm0,0" transform="translate(-137.83 -6.934)" fill="#2c3a56"/>
      <path id="Path_12935" data-name="Path 12935" d="M88,112.677a1.157,1.157,0,0,0,1.157,1.157h30.071a1.157,1.157,0,0,0,1.157-1.157v-34.7a3.47,3.47,0,0,0-3.47-3.47h-6.94a2.313,2.313,0,0,1-2.313-2.313V56h-6.94V72.2a2.313,2.313,0,0,1-2.313,2.313H91.47A3.47,3.47,0,0,0,88,77.979Zm3.47-33.541a1.157,1.157,0,0,1,1.157-1.157h23.132a1.157,1.157,0,0,1,1.157,1.157v30.071a1.157,1.157,0,0,1-1.157,1.157H92.626a1.157,1.157,0,0,1-1.157-1.157Zm0,0" transform="translate(-76.239 -47.995)" fill="#2c3a56"/>
    </g>
    <g id="cocktail_2_" data-name="cocktail (2)" transform="translate(663.349 163.59) rotate(14)" opacity="0.33">
      <path id="Path_12947" data-name="Path 12947" d="M92.886,465.942H69.674a.967.967,0,1,1,0-1.934H92.886a.967.967,0,1,1,0,1.934Zm0,0" transform="translate(-60.401 -407.911)" fill="#2c3a56"/>
      <path id="Path_12948" data-name="Path 12948" d="M218.556.281a.967.967,0,0,0-1.364,0l-5.629,5.629a5.79,5.79,0,0,0-8.376,1.828h2.466a3.854,3.854,0,0,1,5.107,0h2.457a4.52,4.52,0,0,0-.29-.455l5.629-5.639a.967.967,0,0,0,0-1.363Zm0,0" transform="translate(-178.623 0.001)" fill="#2c3a56"/>
      <path id="Path_12949" data-name="Path 12949" d="M150.245,136.008a5.793,5.793,0,0,1-8.868,7.232l-1.029,1.029,2.945,2.945V176.63a.967.967,0,0,0,1.934,0V147.214l11.206-11.206Zm0,0" transform="translate(-123.381 -119.565)" fill="#2c3a56"/>
      <path id="Path_12950" data-name="Path 12950" d="M21.851,69.811a5.764,5.764,0,0,1,3.2.967h.224a5.835,5.835,0,0,1-1.491-3.869,5.762,5.762,0,0,1,.785-2.9H0l6.77,6.77H18.649a5.764,5.764,0,0,1,3.2-.967Zm0,0" transform="translate(-0.004 -56.27)" fill="#2c3a56"/>
      <path id="Path_12951" data-name="Path 12951" d="M214.044,64.008a3.869,3.869,0,1,0,5.064,0Zm1.548,2.128a.567.567,0,0,1-.057.174.76.76,0,0,1-.087.174l-.116.145a.981.981,0,0,1-1.373,0,1.62,1.62,0,0,1-.116-.145.761.761,0,0,1-.087-.174.612.612,0,0,1-.058-.174,1.329,1.329,0,0,1-.022-.193.967.967,0,1,1,1.934,0,1.205,1.205,0,0,1-.02.193Zm0,0" transform="translate(-186.992 -56.269)" fill="#2c3a56"/>
      <path id="Path_12952" data-name="Path 12952" d="M72.02,136.008l6.893,6.893,1.176-1.177a5.765,5.765,0,0,1,.053-5.716Zm0,0" transform="translate(-63.313 -119.565)" fill="#2c3a56"/>
      <path id="Path_12953" data-name="Path 12953" d="M281.077,64.008a5.762,5.762,0,0,1,.785,2.9,5.835,5.835,0,0,1-1.491,3.869h1.091l6.77-6.77Zm0,0" transform="translate(-246.476 -56.269)" fill="#2c3a56"/>
      <path id="Path_12954" data-name="Path 12954" d="M150.041,136.008a3.815,3.815,0,0,0-.6,5.148,3.857,3.857,0,1,0,5.669-5.148Zm1.285,2.621a.965.965,0,0,1-1.576-1.055,1.113,1.113,0,0,1,.2-.319,1.012,1.012,0,0,1,1.373,0,1.113,1.113,0,0,1,.2.319.967.967,0,0,1,.077.368A1.018,1.018,0,0,1,151.326,138.629Zm0,0" transform="translate(-130.727 -119.565)" fill="#2c3a56"/>
    </g>
  </g>
</svg>
