<svg xmlns="http://www.w3.org/2000/svg" width="39.343" height="29.508" viewBox="0 0 39.343 29.508">
  <path id="Icon_metro-credit-card" data-name="Icon metro-credit-card" d="M38.226,5.784H6.259A3.7,3.7,0,0,0,2.571,9.473V31.6a3.7,3.7,0,0,0,3.688,3.688H38.226A3.7,3.7,0,0,0,41.914,31.6V9.473a3.7,3.7,0,0,0-3.688-3.688ZM6.259,8.243H38.226a1.246,1.246,0,0,1,1.229,1.229v3.688H5.03V9.473A1.246,1.246,0,0,1,6.259,8.243Zm31.966,24.59H6.259A1.246,1.246,0,0,1,5.03,31.6V20.538H39.455V31.6A1.246,1.246,0,0,1,38.226,32.833ZM7.489,25.456H9.948v4.918H7.489Zm4.918,0h2.459v4.918H12.407Zm4.918,0h2.459v4.918H17.324Z" transform="translate(-2.571 -5.784)" fill="#2c3a56"/>
</svg>
