<svg xmlns="http://www.w3.org/2000/svg" width="55" height="33" viewBox="0 0 55 33">
  <g id="Cirrus-light" transform="translate(-0.046)">
    <rect id="Rectangle" width="55" height="33" rx="4" transform="translate(0.046)" fill="#fff"/>
    <path id="Fill_374" data-name="Fill 374" d="M22.006,10.931A11,11,0,1,1,11,0,10.967,10.967,0,0,1,22.006,10.931Z" transform="translate(9.294 5.653)" fill="#339"/>
    <path id="Fill_375" data-name="Fill 375" d="M10.755,0a11.019,11.019,0,0,0-8.5,3.986H4.481A11,11,0,0,1,5.32,5.144H1.42A10.882,10.882,0,0,0,.786,6.3H5.954A10.9,10.9,0,0,1,6.42,7.458H.319A10.86,10.86,0,0,0,0,8.616H6.739a10.9,10.9,0,0,1,.248,2.315A10.851,10.851,0,0,1,6.42,14.4H.319a10.969,10.969,0,0,0,.466,1.158H5.954a10.92,10.92,0,0,1-.634,1.158H1.42a11.019,11.019,0,0,0,.839,1.157H4.481A10.936,10.936,0,0,1,3.37,19.033,10.964,10.964,0,1,0,10.755,0Z" transform="translate(24.313 5.653)" fill="#06c"/>
    <path id="Fill_376" data-name="Fill 376" d="M.355.706A.353.353,0,1,1,.711.353.355.355,0,0,1,.355.706Zm0-.621A.268.268,0,1,0,.626.353.269.269,0,0,0,.355.085ZM.307.508H.235V.2H.367a.139.139,0,0,1,.08.016.093.093,0,0,1,.04.077A.085.085,0,0,1,.432.371L.489.507H.408L.361.385H.307V.507Z" transform="translate(44.605 22.324)" fill="#06c"/>
    <path id="Fill_377" data-name="Fill 377" d="M5.846.275c-.1.429-.15.672-.283,1.194a3.119,3.119,0,0,0-2.788,0A2.23,2.23,0,0,0,1.76,3.644a1.336,1.336,0,0,0,.827,1.014,2.794,2.794,0,0,0,2.35-.239c-.118.528-.206.943-.309,1.321A4.849,4.849,0,0,1,1.7,5.779,2.412,2.412,0,0,1,.035,3.824,3.245,3.245,0,0,1,1.843.4,6.11,6.11,0,0,1,5.846.275Z" transform="translate(13.816 13.806)" fill="#006"/>
    <path id="Fill_378" data-name="Fill 378" d="M3.5,3.916a2.314,2.314,0,0,1-1.914.83C.484,4.746-.288,3.94.1,2.131L.558,0H2.237s-.456,2.133-.455,2.131c-.155.725-.118,1.276.623,1.276.873,0,1.135-.525,1.3-1.276C3.7,2.132,4.16,0,4.16,0H5.911L5.158,3.425c-.086.4-.168.827-.215,1.247H3.367Z" transform="translate(30.185 15.048)" fill="#006"/>
    <path id="Fill_379" data-name="Fill 379" d="M.641,1.582c0,.593.392,1,1.281,1.3.687.239.795.309.795.516,0,.3-.307.421-.969.421a6.24,6.24,0,0,1-1.514-.18S.022,4.608,0,4.718a12.472,12.472,0,0,0,1.761.132c1.778,0,2.6-.494,2.6-1.559,0-.637-.346-1.012-1.189-1.3-.711-.232-.79-.286-.79-.507,0-.248.281-.38.827-.38.329,0,.789.028,1.217.072L4.664.093C4.228.041,3.562,0,3.178,0,1.291,0,.636.722.641,1.582Z" transform="translate(36.012 14.944)" fill="#006"/>
    <path id="Fill_380" data-name="Fill 380" d="M1,0H2.758l-1,4.672H0Z" transform="translate(19.302 15.048)" fill="#006"/>
    <path id="Fill_381" data-name="Fill 381" d="M4.445.027A1.916,1.916,0,0,0,2.52.77a3.316,3.316,0,0,0,.1-.723H1.005C.783,1.494.389,2.958.081,4.4L0,4.719H1.827A14.062,14.062,0,0,1,2.557,1.9,1.134,1.134,0,0,1,3.91,1.333Z" transform="translate(25.892 15.001)" fill="#006"/>
    <path id="Fill_382" data-name="Fill 382" d="M4.445.027A1.917,1.917,0,0,0,2.52.77a3.316,3.316,0,0,0,.1-.723H1.005C.783,1.494.389,2.958.081,4.4L0,4.719H1.827A14.085,14.085,0,0,1,2.557,1.9,1.134,1.134,0,0,1,3.91,1.333Z" transform="translate(22.063 15.001)" fill="#006"/>
    <path id="Fill_383" data-name="Fill 383" d="M.356.706A.353.353,0,1,1,.711.353.355.355,0,0,1,.356.706Zm0-.621a.268.268,0,1,0,.27.268A.27.27,0,0,0,.356.085ZM.307.509H.235V.2H.367a.142.142,0,0,1,.08.016.092.092,0,0,1,.04.077A.084.084,0,0,1,.432.372L.489.507H.409L.361.386H.307V.508Z" transform="translate(40.913 18.671)" fill="#fff"/>
    <path id="Fill_384" data-name="Fill 384" d="M5.846.275c-.1.429-.15.672-.283,1.194a3.122,3.122,0,0,0-2.788,0A2.23,2.23,0,0,0,1.76,3.644a1.337,1.337,0,0,0,.828,1.014,2.8,2.8,0,0,0,2.35-.239c-.118.529-.207.944-.309,1.322A4.85,4.85,0,0,1,1.7,5.779,2.412,2.412,0,0,1,.035,3.824,3.245,3.245,0,0,1,1.843.4,6.109,6.109,0,0,1,5.846.275Z" transform="translate(14.16 13.464)" fill="#fff"/>
    <path id="Fill_385" data-name="Fill 385" d="M3.432,3.916a2.315,2.315,0,0,1-1.914.83c-1.1,0-1.8-.806-1.408-2.616L.565,0H2.244L1.788,2.13c-.155.725-.118,1.277.623,1.277.873,0,1.135-.525,1.3-1.277,0,0,.456-2.13.456-2.13H5.845L5.091,3.425c-.086.4-.167.827-.215,1.247H3.3Z" transform="translate(30.595 14.707)" fill="#fff"/>
    <path id="Fill_386" data-name="Fill 386" d="M.642,1.582c0,.593.392,1,1.282,1.3.687.239.795.309.795.516,0,.3-.307.421-.969.421a6.26,6.26,0,0,1-1.514-.18S.022,4.608,0,4.719a12.5,12.5,0,0,0,1.761.132c1.778,0,2.6-.493,2.6-1.559,0-.637-.345-1.012-1.189-1.3-.711-.232-.79-.286-.79-.508,0-.248.281-.38.828-.38.328,0,.789.028,1.217.072L4.664.093C4.228.041,3.562,0,3.179,0,1.292,0,.636.722.642,1.582Z" transform="translate(36.356 14.602)" fill="#fff"/>
    <path id="Fill_387" data-name="Fill 387" d="M1,0H2.685l-1,4.672H0Z" transform="translate(19.719 14.707)" fill="#fff"/>
    <path id="Fill_388" data-name="Fill 388" d="M4.372.027A1.917,1.917,0,0,0,2.447.77a3.308,3.308,0,0,0,.1-.723H1C.783,1.494.389,2.957.081,4.4L0,4.718H1.753A14.073,14.073,0,0,1,2.484,1.9a1.133,1.133,0,0,1,1.353-.571Z" transform="translate(26.31 14.659)" fill="#fff"/>
    <path id="Fill_389" data-name="Fill 389" d="M4.372.027A1.917,1.917,0,0,0,2.447.77a3.3,3.3,0,0,0,.1-.723H1C.783,1.494.389,2.957.081,4.4L0,4.718H1.753A14.058,14.058,0,0,1,2.484,1.9a1.133,1.133,0,0,1,1.353-.571Z" transform="translate(22.48 14.659)" fill="#fff"/>
  </g>
</svg>
