<svg xmlns="http://www.w3.org/2000/svg" width="41.562" height="39.713" viewBox="0 0 41.562 39.713">
  <path id="Path_12913" data-name="Path 12913" d="M19.429,39.713h8.684V22.537a21.355,21.355,0,0,0,24.194,0V39.713h8.684V10.391A4.327,4.327,0,0,0,59.76,7.366a4.342,4.342,0,1,0-6.222,0,4.327,4.327,0,0,0-1.231,3.024v2.482a17.1,17.1,0,0,1-24.194,0V10.391a4.327,4.327,0,0,0-1.231-3.024,4.342,4.342,0,1,0-6.222,0,4.327,4.327,0,0,0-1.231,3.024Zm8.684-23.327A19.517,19.517,0,0,0,32.52,18.97a19.809,19.809,0,0,0,15.38,0,19.513,19.513,0,0,0,4.407-2.584v2.838a18.672,18.672,0,0,1-24.194,0Z" transform="translate(-19.429 0)" fill="#2c3a56"/>
</svg>
