<svg id="velvet" xmlns="http://www.w3.org/2000/svg" width="15.255" height="14.576" viewBox="0 0 15.255 14.576">
  <path id="Path_12913" data-name="Path 12913" d="M19.429,14.576h3.187v-6.3a7.838,7.838,0,0,0,8.88,0v6.3h3.187V3.814a1.588,1.588,0,0,0-.452-1.11,1.594,1.594,0,1,0-2.284,0,1.588,1.588,0,0,0-.452,1.11v.911a6.275,6.275,0,0,1-8.88,0V3.814a1.588,1.588,0,0,0-.452-1.11,1.594,1.594,0,1,0-2.284,0,1.588,1.588,0,0,0-.452,1.11Zm3.187-8.562a7.163,7.163,0,0,0,1.618.948,7.27,7.27,0,0,0,5.645,0A7.162,7.162,0,0,0,31.5,6.014V7.056a6.853,6.853,0,0,1-8.88,0Z" transform="translate(-19.429 0)" fill="#8e9db9"/>
</svg>
