<svg xmlns="http://www.w3.org/2000/svg" width="33.928" height="38.775" viewBox="0 0 33.928 38.775">
  <path id="Icon_metro-file-text" data-name="Icon metro-file-text" d="M36.829,10.6a34.34,34.34,0,0,0-3.3-3.775,34.343,34.343,0,0,0-3.775-3.3c-1.953-1.432-2.9-1.6-3.443-1.6H7.528A3.033,3.033,0,0,0,4.5,4.957V37.673A3.033,3.033,0,0,0,7.528,40.7H35.4a3.033,3.033,0,0,0,3.029-3.029V14.045c0-.543-.166-1.49-1.6-3.443ZM31.814,8.54a33.051,33.051,0,0,1,2.748,3.081h-5.83V5.792A33.018,33.018,0,0,1,31.814,8.54ZM36,37.673a.614.614,0,0,1-.606.606H7.528a.614.614,0,0,1-.606-.606V4.957a.614.614,0,0,1,.606-.606H26.31v8.482a1.212,1.212,0,0,0,1.212,1.212H36Zm-6.059-4.241H12.981a1.212,1.212,0,0,1,0-2.423H29.945a1.212,1.212,0,0,1,0,2.423Zm0-4.847H12.981a1.212,1.212,0,1,1,0-2.423H29.945a1.212,1.212,0,0,1,0,2.423Zm0-4.847H12.981a1.212,1.212,0,0,1,0-2.423H29.945a1.212,1.212,0,0,1,0,2.423Z" transform="translate(-4.499 -1.928)" fill="#2c3a56"/>
</svg>
