<svg xmlns="http://www.w3.org/2000/svg" width="14.182" height="14.181" viewBox="0 0 14.182 14.181">
  <path id="Icon_ionic-md-settings" data-name="Icon ionic-md-settings" d="M15.851,11.175a4.434,4.434,0,0,0,.036-.709c0-.248-.036-.461-.036-.709l1.523-1.17a.326.326,0,0,0,.073-.461L16,5.68a.353.353,0,0,0-.435-.142l-1.813.709a5.278,5.278,0,0,0-1.233-.709l-.254-1.879a.389.389,0,0,0-.363-.284H9a.389.389,0,0,0-.363.284l-.29,1.879a6.141,6.141,0,0,0-1.233.709L5.3,5.538a.34.34,0,0,0-.435.142L3.412,8.126a.428.428,0,0,0,.073.461l1.559,1.17c0,.248-.036.461-.036.709s.036.461.036.709l-1.523,1.17a.326.326,0,0,0-.073.461L4.9,15.252a.353.353,0,0,0,.435.142l1.813-.709a5.277,5.277,0,0,0,1.233.709l.29,1.879a.351.351,0,0,0,.363.284h2.9a.389.389,0,0,0,.363-.284l.29-1.879a6.137,6.137,0,0,0,1.233-.709l1.813.709a.34.34,0,0,0,.435-.142l1.45-2.446a.428.428,0,0,0-.073-.461Zm-5.4,1.773a2.482,2.482,0,1,1,2.538-2.482A2.495,2.495,0,0,1,10.447,12.947Z" transform="translate(-3.375 -3.375)" fill="#8e9db9"/>
</svg>
