<svg xmlns="http://www.w3.org/2000/svg" width="14.417" height="12.615" viewBox="0 0 14.417 12.615">
  <path id="Icon_awesome-wallet" data-name="Icon awesome-wallet" d="M12.987,4.953H2.253a.451.451,0,0,1,0-.9H13.065a.45.45,0,0,0,.451-.451A1.352,1.352,0,0,0,12.164,2.25H1.8A1.8,1.8,0,0,0,0,4.052v9.011a1.8,1.8,0,0,0,1.8,1.8H12.987a1.394,1.394,0,0,0,1.43-1.352V6.3A1.394,1.394,0,0,0,12.987,4.953ZM11.714,10.81a.9.9,0,1,1,.9-.9A.9.9,0,0,1,11.714,10.81Z" transform="translate(0 -2.25)" fill="#fff"/>
</svg>
