<svg xmlns="http://www.w3.org/2000/svg" width="55" height="33" viewBox="0 0 55 33">
  <g id="Maestro-light" transform="translate(-0.105)">
    <rect id="Rectangle" width="55" height="33" rx="4" transform="translate(0.105)" fill="#fff"/>
    <path id="Fill_356" data-name="Fill 356" d="M22.043,11.065A11.022,11.022,0,1,1,11.021,0,11.043,11.043,0,0,1,22.043,11.065Z" transform="translate(24.389 5.509)" fill="#c00"/>
    <path id="Fill_357" data-name="Fill 357" d="M17.309,18.091a10.984,10.984,0,0,1-.839-1.172h3.906a11,11,0,0,0,.635-1.172H15.835a11.006,11.006,0,0,1-.467-1.171h6.109A11.186,11.186,0,0,0,21.8,8.722H15.05a11.045,11.045,0,0,1,.32-1.172h6.107a11.15,11.15,0,0,0-.466-1.171H15.836a11.213,11.213,0,0,1,.635-1.172h3.9a11.181,11.181,0,0,0-.839-1.171H17.311a11.147,11.147,0,0,1,1.112-1.171A11.013,11.013,0,0,0,0,11.065a11.013,11.013,0,0,0,19.536,7.027Z" transform="translate(9.587 5.509)" fill="#06c"/>
    <path id="Fill_359" data-name="Fill 359" d="M2.348,4.771H2.337A2.59,2.59,0,0,1,.592,4.25,1.93,1.93,0,0,1,0,2.723,2.93,2.93,0,0,1,.682.773,2.261,2.261,0,0,1,2.4,0,1.653,1.653,0,0,1,4.254,1.661a4.331,4.331,0,0,1-.168,1.127H1.353A.737.737,0,0,0,1.5,3.4a1.351,1.351,0,0,0,1.049.329A3.615,3.615,0,0,0,3.96,3.448L3.744,4.585A5.36,5.36,0,0,1,2.348,4.771Zm.023-3.726c-.438,0-.75.291-.877.818H3.01c0-.01,0-.025,0-.045a.764.764,0,0,0-.131-.583A.673.673,0,0,0,2.371,1.045Z" transform="translate(24.109 14.979)" fill="#006"/>
    <path id="Fill_360" data-name="Fill 360" d="M.529,1.555c0,.58.325.98,1.064,1.278.565.232.654.3.654.507,0,.288-.249.419-.8.416A4.562,4.562,0,0,1,.2,3.578L0,4.635a7.891,7.891,0,0,0,1.452.135c1.475,0,2.156-.485,2.156-1.533A1.265,1.265,0,0,0,2.624,1.96c-.586-.235-.654-.286-.654-.5,0-.25.232-.376.684-.376a8.967,8.967,0,0,1,1.006.069L3.86.091A10.8,10.8,0,0,0,2.628,0C1.065,0,.524.706.529,1.555Z" transform="translate(28.25 14.98)" fill="#006"/>
    <path id="Fill_361" data-name="Fill 361" d="M1.26,4.77A1.2,1.2,0,0,1,0,3.519C0,2.395.882,1.75,2.421,1.75a5.191,5.191,0,0,1,.563.035,1.008,1.008,0,0,0,.054-.3c0-.306-.24-.42-.885-.42a5.3,5.3,0,0,0-1.461.2L.888.243A6.216,6.216,0,0,1,2.535,0C3.72,0,4.346.464,4.346,1.343a5.186,5.186,0,0,1-.112.91c-.014.091-.054.311-.1.589-.112.624-.282,1.567-.306,1.852H2.679l.027-.482A1.829,1.829,0,0,1,1.26,4.77ZM2.511,2.629c-.782,0-1.178.234-1.178.695a.453.453,0,0,0,.5.471,1.058,1.058,0,0,0,.991-1.147A2.8,2.8,0,0,0,2.511,2.629Z" transform="translate(19.535 14.979)" fill="#006"/>
    <path id="Fill_362" data-name="Fill 362" d="M2.073,5.614a3.555,3.555,0,0,1-.986.148c-.7,0-1.085-.36-1.085-1A9.6,9.6,0,0,1,.19,3.544C.229,3.316.837,0,.837,0H2.2L1.995,1.1h.7L2.5,2.217H1.8S1.416,4.161,1.416,4.31c0,.236.142.338.469.338a1.309,1.309,0,0,0,.37-.043Z" transform="translate(32.201 13.987)" fill="#006"/>
    <path id="Fill_363" data-name="Fill 363" d="M5.142,4.778A1.931,1.931,0,0,1,2.984,2.7a2.991,2.991,0,0,1,.264-1.267,1.372,1.372,0,0,0-.31-.039c-.589,0-.974.489-1.215,1.539-.1.451-.2,1-.345,1.775H0l.058-.309c.079-.47.167-.95.253-1.415C.484,2.036.662,1.063.779.113H2.059v.8C2.129.835,2.2.745,2.2.745A1.55,1.55,0,0,1,3.364,0a1.317,1.317,0,0,1,.453.087L3.423,1.111A2.562,2.562,0,0,1,5.658.008,1.97,1.97,0,0,1,7.819,2.047a2.723,2.723,0,0,1-.756,2.078A2.745,2.745,0,0,1,5.142,4.778ZM5.6,1.1c-.671,0-1.122.8-1.122,1.548,0,.617.3,1.016.769,1.016h.013c.672,0,1.09-.631,1.09-1.646C6.347,1.743,6.274,1.1,5.6,1.1Z" transform="translate(34.711 14.971)" fill="#006"/>
    <path id="Fill_364" data-name="Fill 364" d="M5.976,5.61H4.6L5.42,1.3,3.542,5.61H2.291L2.063,1.322,1.245,5.61H0L1.06,0H3.2l.179,3.127L4.741,0H7.058Z" transform="translate(12.917 14.065)" fill="#006"/>
    <path id="Fill_366" data-name="Fill 366" d="M2.348,4.771H2.337A2.591,2.591,0,0,1,.592,4.25,1.93,1.93,0,0,1,0,2.724,2.931,2.931,0,0,1,.682.773,2.261,2.261,0,0,1,2.4,0,1.653,1.653,0,0,1,4.254,1.661a4.325,4.325,0,0,1-.169,1.128H1.354A.736.736,0,0,0,1.5,3.4a1.35,1.35,0,0,0,1.049.329A3.615,3.615,0,0,0,3.96,3.448L3.744,4.585A5.352,5.352,0,0,1,2.348,4.771Zm.023-3.726c-.438,0-.749.291-.877.819H3.009c0-.01,0-.025,0-.045a.765.765,0,0,0-.131-.584A.673.673,0,0,0,2.371,1.045Z" transform="translate(24.453 14.633)" fill="#fff"/>
    <path id="Fill_367" data-name="Fill 367" d="M.529,1.555c0,.58.325.98,1.064,1.279.565.232.654.3.654.507,0,.288-.25.42-.8.417A4.566,4.566,0,0,1,.2,3.578L0,4.635a7.879,7.879,0,0,0,1.452.135c1.475,0,2.157-.485,2.157-1.534A1.265,1.265,0,0,0,2.624,1.96c-.586-.235-.654-.286-.654-.5,0-.25.232-.376.685-.376a8.981,8.981,0,0,1,1.006.069L3.86.091A10.645,10.645,0,0,0,2.628,0C1.065,0,.524.706.529,1.555Z" transform="translate(28.594 14.634)" fill="#fff"/>
    <path id="Fill_368" data-name="Fill 368" d="M1.26,4.77A1.2,1.2,0,0,1,0,3.519C0,2.395.883,1.75,2.421,1.75a5.472,5.472,0,0,1,.564.035,1,1,0,0,0,.054-.3c0-.306-.24-.42-.885-.42a5.286,5.286,0,0,0-1.461.2l.2-1.03A6.245,6.245,0,0,1,2.535,0C3.72,0,4.347.465,4.347,1.344a5.4,5.4,0,0,1-.111.909c-.014.088-.052.3-.1.569-.114.631-.285,1.584-.309,1.872H2.68l.027-.482A1.827,1.827,0,0,1,1.26,4.77Zm1.252-2.14c-.782,0-1.178.233-1.178.694a.453.453,0,0,0,.5.472A1.059,1.059,0,0,0,2.82,2.648,2.6,2.6,0,0,0,2.512,2.629Z" transform="translate(19.879 14.633)" fill="#fff"/>
    <path id="Fill_369" data-name="Fill 369" d="M2.073,5.614a3.55,3.55,0,0,1-.986.149c-.7,0-1.085-.36-1.085-1A9.591,9.591,0,0,1,.19,3.544C.229,3.316.837,0,.837,0H2.2L2,1.1h.7L2.5,2.217H1.8s-.386,1.944-.386,2.092c0,.236.142.338.469.338a1.3,1.3,0,0,0,.37-.042Z" transform="translate(32.545 13.641)" fill="#fff"/>
    <path id="Fill_370" data-name="Fill 370" d="M2.159,4.771A1.932,1.932,0,0,1,0,2.688,2.694,2.694,0,0,1,.728.743,2.658,2.658,0,0,1,2.675,0,1.971,1.971,0,0,1,4.836,2.039,2.724,2.724,0,0,1,4.08,4.117,2.746,2.746,0,0,1,2.159,4.771Zm.455-3.678c-.671,0-1.122.8-1.122,1.548,0,.617.3,1.016.769,1.016h.012c.673,0,1.091-.631,1.091-1.647C3.364,1.734,3.291,1.093,2.614,1.093Z" transform="translate(38.038 14.633)" fill="#fff"/>
    <path id="Fill_371" data-name="Fill 371" d="M.778.05C.6,1.47.3,2.909.058,4.332L0,4.641H1.378c.5-2.747.663-3.53,1.7-3.254l.5-1.3C2.856-.18,2.389.2,1.966.745A3.216,3.216,0,0,0,2.059.05Z" transform="translate(35.056 14.688)" fill="#fff"/>
    <path id="Fill_372" data-name="Fill 372" d="M5.976,5.61H4.6L5.42,1.3,3.542,5.61H2.291L2.063,1.322,1.245,5.61H0L1.06,0H3.2l.113,3.473L4.827,0H7.058Z" transform="translate(13.261 13.719)" fill="#fff"/>
  </g>
</svg>
