<svg xmlns="http://www.w3.org/2000/svg" width="55" height="33" viewBox="0 0 55 33">
  <g id="MasterCard-light" transform="translate(0.058)">
    <rect id="Rectangle" width="55" height="33" rx="4" transform="translate(-0.058)" fill="#fff"/>
    <path id="Fill_333" data-name="Fill 333" d="M21.575,10.788A10.788,10.788,0,1,1,10.788,0,10.787,10.787,0,0,1,21.575,10.788Z" transform="translate(9.046 6.064)" fill="#c00"/>
    <path id="Fill_334" data-name="Fill 334" d="M10.545,0A10.749,10.749,0,0,0,3.3,2.792,11,11,0,0,0,2.214,3.934h2.18a11.069,11.069,0,0,1,.822,1.143H1.392A10.838,10.838,0,0,0,.77,6.219H5.837a10.744,10.744,0,0,1,.457,1.142H.313A10.74,10.74,0,0,0,0,8.5H6.607a10.866,10.866,0,0,1,.242,2.284,10.783,10.783,0,0,1-.555,3.427H.313A10.9,10.9,0,0,0,.77,15.357H5.837A10.806,10.806,0,0,1,5.215,16.5H1.392a10.876,10.876,0,0,0,.823,1.141H4.393A10.781,10.781,0,0,1,3.3,18.783,10.788,10.788,0,1,0,10.545,0Z" transform="translate(23.772 6.064)" fill="#f90"/>
    <path id="Fill_336" data-name="Fill 336" d="M1.07,4.626A1.1,1.1,0,0,1,0,3.411C0,2.32.749,1.695,2.056,1.695a4.038,4.038,0,0,1,.478.034,1.117,1.117,0,0,0,.045-.289c0-.3-.2-.4-.751-.4H1.793a3.866,3.866,0,0,0-1.2.2c.012-.07.147-.9.162-1A4.6,4.6,0,0,1,2.153,0,1.655,1.655,0,0,1,3.362.39,1.24,1.24,0,0,1,3.69,1.3a5.663,5.663,0,0,1-.1.882l0,.016c-.1.654-.317,2.013-.347,2.347H2.275L2.3,4.088A1.463,1.463,0,0,1,1.07,4.626ZM2.132,2.548c-.663,0-1,.228-1,.678a.41.41,0,0,0,.419.453c.475,0,.821-.457.842-1.112A2.026,2.026,0,0,0,2.132,2.548Z" transform="translate(14.921 15.466)" fill="#006"/>
    <path id="Fill_337" data-name="Fill 337" d="M4.7,5.472H3.525L4.2,1.266,2.7,5.472H1.9L1.8,1.289,1.1,5.472H0L.916,0H2.6l.1,3.063L3.729,0H5.6Z" transform="translate(9.735 14.544)" fill="#006"/>
    <path id="Fill_338" data-name="Fill 338" d="M1.07,4.626A1.1,1.1,0,0,1,0,3.411C0,2.32.749,1.695,2.056,1.695a4.035,4.035,0,0,1,.477.034,1.1,1.1,0,0,0,.046-.289c0-.3-.2-.4-.751-.4H1.793a3.888,3.888,0,0,0-1.205.2c.012-.07.148-.9.163-1A4.586,4.586,0,0,1,2.152,0a1.656,1.656,0,0,1,1.21.39,1.24,1.24,0,0,1,.328.914,5.664,5.664,0,0,1-.1.882l-.025.158c-.111.709-.3,1.894-.324,2.2h-.97L2.3,4.088A1.462,1.462,0,0,1,1.07,4.626ZM2.132,2.548c-.663,0-1,.228-1,.678a.41.41,0,0,0,.419.453c.475,0,.821-.457.841-1.112A2.022,2.022,0,0,0,2.132,2.548Z" transform="translate(33.371 15.466)" fill="#006"/>
    <path id="Fill_339" data-name="Fill 339" d="M1.767,5.056A2.677,2.677,0,0,1,.926,5.2.857.857,0,0,1,0,4.223a10.271,10.271,0,0,1,.16-1.186C.229,2.621.669,0,.669,0H1.833L1.7.674h.7l-.159,1.07H1.536c-.135.846-.328,1.9-.33,2.04,0,.229.122.33.4.33a.953.953,0,0,0,.316-.042Z" transform="translate(21.604 14.892)" fill="#006"/>
    <path id="Fill_340" data-name="Fill 340" d="M1.993,4.626h-.01a2.018,2.018,0,0,1-1.48-.5A2.018,2.018,0,0,1,0,2.641,3.1,3.1,0,0,1,.579.75,1.824,1.824,0,0,1,2.037,0,1.492,1.492,0,0,1,3.61,1.61,4.766,4.766,0,0,1,3.467,2.7H1.148a.776.776,0,0,0,.154.633,1.108,1.108,0,0,0,.859.282,2.75,2.75,0,0,0,1.21-.28L3.177,4.446A3.991,3.991,0,0,1,1.993,4.626ZM1.981,1.013c-.372,0-.636.282-.743.794H2.522c0-.006,0-.013,0-.023a.822.822,0,0,0-.13-.615A.53.53,0,0,0,1.981,1.013Z" transform="translate(23.764 15.466)" fill="#006"/>
    <path id="Fill_341" data-name="Fill 341" d="M.443,1.506a1.3,1.3,0,0,0,.892,1.242c.474.223.548.289.548.491,0,.277-.209.4-.673.4A3.29,3.29,0,0,1,.161,3.466L0,4.495a5.457,5.457,0,0,0,1.219.132c1.236,0,1.806-.471,1.806-1.487A1.219,1.219,0,0,0,2.2,1.9c-.491-.225-.548-.276-.548-.483,0-.241.195-.363.573-.363a6.47,6.47,0,0,1,.842.067L3.233.086A7.907,7.907,0,0,0,2.2,0C.893,0,.439.684.443,1.506Z" transform="translate(18.426 15.466)" fill="#006"/>
    <path id="Fill_342" data-name="Fill 342" d="M5.27,1.355a2.227,2.227,0,0,1,1.047.3L6.508.463A3.44,3.44,0,0,0,5.221,0,2.333,2.333,0,0,0,3.309,1.031c-.68-.225-.96.23-1.3.683l-.3.071a2.273,2.273,0,0,0,.037-.448H.664C.517,2.715.257,4.11.053,5.488L0,5.787H1.172c.2-1.271.3-2.084.368-2.635l.441-.244c.066-.246.272-.328.686-.318a4.985,4.985,0,0,0-.083.912c0,1.456.787,2.362,2.047,2.362A3.655,3.655,0,0,0,5.665,5.7l.205-1.247a2.279,2.279,0,0,1-.995.281c-.681,0-1.093-.5-1.093-1.333C3.783,2.2,4.4,1.355,5.27,1.355Z" transform="translate(27.366 14.228)" fill="#006"/>
    <path id="Fill_343" data-name="Fill 343" d="M3.676,5.549a1.251,1.251,0,0,1-1.027-.506A2.185,2.185,0,0,1,2.261,3.7a3.814,3.814,0,0,1,.284-1.444H2.508c-.294,0-.477.18-.73.43-.074.073-.151.149-.238.228-.1.792-.229,1.653-.368,2.557H0l.054-.3c.067-.452.141-.914.213-1.361.147-.916.3-1.864.4-2.789H1.74a6.592,6.592,0,0,1-.052.67v0a9.746,9.746,0,0,0,1,.275A1.817,1.817,0,0,1,4.167.854a1.5,1.5,0,0,1,1.118.726L5.545,0H6.7L5.808,5.472H4.7l.055-.414A1.388,1.388,0,0,1,3.676,5.549Zm.713-3.477c-.535,0-.908.615-.908,1.495,0,.582.2.877.6.877.547,0,.928-.617.928-1.5C5.009,2.381,4.789,2.072,4.388,2.072Z" transform="translate(37.007 14.544)" fill="#006"/>
    <path id="Fill_344" data-name="Fill 344" d="M4.7,5.471H3.525L4.2,1.265,2.7,5.471H1.9L1.8,1.29,1.1,5.471H0L.916,0H2.6l.047,3.387L3.783,0H5.6Z" transform="translate(10.072 14.22)" fill="#fff"/>
    <path id="Fill_345" data-name="Fill 345" d="M1.07,4.627A1.1,1.1,0,0,1,0,3.411C0,2.321.749,1.7,2.056,1.7a3.911,3.911,0,0,1,.477.034,1.108,1.108,0,0,0,.046-.29c0-.294-.2-.4-.751-.4H1.788a3.848,3.848,0,0,0-1.2.2C.6,1.173.714.462.749.246l0-.01A4.646,4.646,0,0,1,2.153,0,1.736,1.736,0,0,1,3.3.333,1.208,1.208,0,0,1,3.69,1.3a5.635,5.635,0,0,1-.1.882l-.008.049c-.1.645-.313,1.986-.342,2.314h-.97L2.3,4.088A1.463,1.463,0,0,1,1.07,4.627ZM2.132,2.549c-.664,0-1,.228-1,.677a.41.41,0,0,0,.42.454c.475,0,.821-.457.841-1.112A1.917,1.917,0,0,0,2.132,2.549Z" transform="translate(15.258 15.141)" fill="#fff"/>
    <path id="Fill_346" data-name="Fill 346" d="M3.925.284,3.733,1.472a2.236,2.236,0,0,0-1.046-.3c-.874,0-1.488.845-1.488,2.05,0,.83.412,1.332,1.093,1.332a2.266,2.266,0,0,0,.995-.281L3.081,5.525a3.655,3.655,0,0,1-1.035.16C.785,5.685,0,4.779,0,3.323,0,1.367,1.086,0,2.638,0A4.053,4.053,0,0,1,3.925.284Z" transform="translate(30.287 14.083)" fill="#fff"/>
    <path id="Fill_347" data-name="Fill 347" d="M1.07,4.627A1.1,1.1,0,0,1,0,3.411C0,2.321.749,1.7,2.056,1.7a3.908,3.908,0,0,1,.477.034,1.1,1.1,0,0,0,.046-.29c0-.294-.2-.4-.751-.4H1.787a3.858,3.858,0,0,0-1.2.2c.012-.069.147-.9.162-1A4.6,4.6,0,0,1,2.152,0a1.655,1.655,0,0,1,1.21.391,1.239,1.239,0,0,1,.328.914,5.569,5.569,0,0,1-.095.882l0,.01c-.1.655-.318,2.019-.348,2.353h-.97L2.3,4.088A1.463,1.463,0,0,1,1.07,4.627ZM2.132,2.549c-.663,0-1,.228-1,.677a.41.41,0,0,0,.419.454c.476,0,.821-.457.841-1.112A1.918,1.918,0,0,0,2.132,2.549Z" transform="translate(33.708 15.141)" fill="#fff"/>
    <path id="Fill_348" data-name="Fill 348" d="M1.767,5.055A2.675,2.675,0,0,1,.926,5.2.857.857,0,0,1,0,4.223,10.3,10.3,0,0,1,.161,3.037C.229,2.621.669,0,.669,0H1.833L1.7.673h.6L2.136,1.743h-.6c-.135.847-.328,1.9-.33,2.04,0,.23.123.33.4.33a.937.937,0,0,0,.316-.042Z" transform="translate(21.941 14.568)" fill="#fff"/>
    <path id="Fill_349" data-name="Fill 349" d="M1.982,4.627a2.015,2.015,0,0,1-1.48-.5A2.019,2.019,0,0,1,0,2.642,3.1,3.1,0,0,1,.578.75,1.823,1.823,0,0,1,2.036,0,1.557,1.557,0,0,1,3.183.436,1.637,1.637,0,0,1,3.61,1.611,4.818,4.818,0,0,1,3.467,2.7H1.148a.776.776,0,0,0,.154.633,1.107,1.107,0,0,0,.858.282,2.755,2.755,0,0,0,1.21-.281L3.177,4.447A4.025,4.025,0,0,1,1.982,4.627Zm0-3.613c-.372,0-.636.282-.744.795H2.523c0-.006,0-.015,0-.026a.825.825,0,0,0-.132-.613A.53.53,0,0,0,1.981,1.013Z" transform="translate(24.101 15.141)" fill="#fff"/>
    <path id="Fill_350" data-name="Fill 350" d="M.443,1.506a1.3,1.3,0,0,0,.892,1.243c.474.223.548.289.548.491,0,.277-.209.4-.673.4A3.3,3.3,0,0,1,.161,3.468L0,4.494a5.422,5.422,0,0,0,1.218.132c1.236,0,1.807-.47,1.807-1.487A1.217,1.217,0,0,0,2.2,1.9c-.491-.226-.547-.276-.547-.484,0-.241.195-.364.573-.364a6.513,6.513,0,0,1,.841.068L3.233.087A7.972,7.972,0,0,0,2.2,0C.892,0,.439.684.443,1.506Z" transform="translate(18.763 15.141)" fill="#fff"/>
    <path id="Fill_351" data-name="Fill 351" d="M1.414,5.549A1.25,1.25,0,0,1,.388,5.043,2.187,2.187,0,0,1,0,3.7C0,2.223.873.974,1.905.974a1.324,1.324,0,0,1,1.118.607L3.284,0H4.439L3.547,5.471H2.439l.055-.414A1.386,1.386,0,0,1,1.414,5.549Zm.713-3.478c-.535,0-.908.615-.908,1.495,0,.582.2.877.6.877.547,0,.928-.617.928-1.5C2.747,2.381,2.527,2.071,2.127,2.071Z" transform="translate(39.605 14.22)" fill="#fff"/>
    <path id="Fill_352" data-name="Fill 352" d="M.664.048C.518,1.425.257,2.82.053,4.2L0,4.5H1.171c.419-2.721.52-3.252,1.177-3.186A4.368,4.368,0,0,1,2.793.021c-.49-.1-.764.175-1.123.7A4.053,4.053,0,0,0,1.74.048Z" transform="translate(37.344 15.193)" fill="#fff"/>
    <path id="Fill_353" data-name="Fill 353" d="M.665.048C.517,1.425.257,2.82.053,4.2L0,4.5H1.172c.419-2.721.52-3.252,1.176-3.186A4.395,4.395,0,0,1,2.793.021c-.49-.1-.764.175-1.123.7A4.034,4.034,0,0,0,1.74.048Z" transform="translate(27.703 15.193)" fill="#fff"/>
  </g>
</svg>
