<svg xmlns="http://www.w3.org/2000/svg" width="40.945" height="40.945" viewBox="0 0 40.945 40.945">
  <path id="Icon_metro-qrcode" data-name="Icon metro-qrcode" d="M15.366,4.487H5.13V14.723H15.366Zm2.559-2.559V17.282H2.571V1.928ZM7.689,7.046h5.118v5.118H7.689ZM40.957,4.487H30.72V14.723H40.957V4.487Zm2.559-2.559V17.282H28.161V1.928H43.516ZM33.279,7.046H38.4v5.118H33.279ZM15.366,30.078H5.13V40.314H15.366Zm2.559-2.559V42.873H2.571V27.519ZM7.689,32.637h5.118v5.118H7.689Zm12.8-30.709h2.559V4.487H20.484Zm2.559,2.559H25.6V7.046H23.043ZM20.484,7.046h2.559V9.605H20.484Zm2.559,2.559H25.6v2.559H23.043Zm-2.559,2.559h2.559v2.559H20.484Zm2.559,2.559H25.6v2.559H23.043Zm-2.559,2.559h2.559v2.559H20.484Zm0,5.118h2.559V24.96H20.484Zm2.559,2.559H25.6v2.559H23.043Zm-2.559,2.559h2.559v2.559H20.484Zm2.559,2.559H25.6v2.559H23.043Zm-2.559,2.559h2.559V35.2H20.484ZM23.043,35.2H25.6v2.559H23.043Zm-2.559,2.559h2.559v2.559H20.484Zm2.559,2.559H25.6v2.559H23.043ZM40.957,22.4h2.559V24.96H40.957ZM5.13,22.4H7.689V24.96H5.13Zm2.559-2.559h2.559V22.4H7.689Zm-5.118,0H5.13V22.4H2.571Zm10.236,0h2.559V22.4H12.807ZM15.366,22.4h2.559V24.96H15.366Zm2.559-2.559h2.559V22.4H17.925ZM25.6,22.4h2.559V24.96H25.6Zm2.559-2.559H30.72V22.4H28.161ZM30.72,22.4h2.559V24.96H30.72Zm2.559-2.559h2.559V22.4H33.279ZM35.839,22.4H38.4V24.96H35.839ZM38.4,19.841h2.559V22.4H38.4Zm2.559,7.677h2.559v2.559H40.957Zm-15.354,0h2.559v2.559H25.6Zm2.559-2.559H30.72v2.559H28.161Zm2.559,2.559h2.559v2.559H30.72Zm5.118,0H38.4v2.559H35.839ZM38.4,24.96h2.559v2.559H38.4Zm2.559,7.677h2.559V35.2H40.957Zm-15.354,0h2.559V35.2H25.6Zm2.559-2.559H30.72v2.559H28.161Zm5.118,0h2.559v2.559H33.279Zm2.559,2.559H38.4V35.2H35.839ZM38.4,30.078h2.559v2.559H38.4Zm2.559,7.677h2.559v2.559H40.957ZM28.161,35.2H30.72v2.559H28.161Zm2.559,2.559h2.559v2.559H30.72ZM33.279,35.2h2.559v2.559H33.279Zm2.559,2.559H38.4v2.559H35.839Zm-7.677,2.559H30.72v2.559H28.161Zm5.118,0h2.559v2.559H33.279Zm5.118,0h2.559v2.559H38.4Z" transform="translate(-2.571 -1.928)" fill="#2c3a56"/>
</svg>
