<svg id="_2891526" data-name="2891526" xmlns="http://www.w3.org/2000/svg" width="14.684" height="14.576" viewBox="0 0 14.684 14.576">
  <path id="Path_12911" data-name="Path 12911" d="M7.972,1.213,1.248.191A1.084,1.084,0,0,0,.379.43,1.094,1.094,0,0,0,0,1.25V14.142a.614.614,0,0,0,.612.612H2.6V11.541a1.068,1.068,0,0,1,1.071-1.071H5.2a1.068,1.068,0,0,1,1.071,1.071v3.212h2.6V2.272a1.071,1.071,0,0,0-.9-1.059ZM3.365,9.094H2.447a.459.459,0,1,1,0-.918h.918a.459.459,0,1,1,0,.918Zm0-1.836H2.447a.459.459,0,1,1,0-.918h.918a.459.459,0,1,1,0,.918Zm0-1.836H2.447a.459.459,0,1,1,0-.918h.918a.459.459,0,1,1,0,.918Zm0-1.836H2.447a.459.459,0,0,1,0-.918h.918a.459.459,0,1,1,0,.918ZM6.424,9.094H5.507a.459.459,0,1,1,0-.918h.918a.459.459,0,1,1,0,.918Zm0-1.836H5.507a.459.459,0,1,1,0-.918h.918a.459.459,0,1,1,0,.918Zm0-1.836H5.507a.459.459,0,1,1,0-.918h.918a.459.459,0,1,1,0,.918Zm0-1.836H5.507a.459.459,0,1,1,0-.918h.918a.459.459,0,1,1,0,.918Z" transform="translate(0 -0.178)" fill="#8e9db9"/>
  <path id="Path_12912" data-name="Path 12912" d="M19.856,10.263,15.5,9.351v8.963h4.13A1.072,1.072,0,0,0,20.7,17.243V11.31A1.066,1.066,0,0,0,19.856,10.263Zm-1.45,6.215h-.918a.459.459,0,0,1,0-.918h.918a.459.459,0,1,1,0,.918Zm0-1.836h-.918a.459.459,0,0,1,0-.918h.918a.459.459,0,1,1,0,.918Zm0-1.836h-.918a.459.459,0,0,1,0-.918h.918a.459.459,0,1,1,0,.918Z" transform="translate(-6.016 -3.738)" fill="#8e9db9"/>
</svg>
