<svg id="_2891526" data-name="2891526" xmlns="http://www.w3.org/2000/svg" width="45.312" height="44.976" viewBox="0 0 45.312 44.976">
  <path id="Path_12911" data-name="Path 12911" d="M24.6,3.372,3.851.22A3.346,3.346,0,0,0,1.171.956,3.376,3.376,0,0,0,0,3.486v39.78a1.894,1.894,0,0,0,1.888,1.888H8.024V35.242a3.3,3.3,0,0,1,3.3-3.3h4.72a3.3,3.3,0,0,1,3.3,3.3v9.912h8.024V6.639A3.306,3.306,0,0,0,24.6,3.372ZM10.384,27.69H7.552a1.416,1.416,0,1,1,0-2.832h2.832a1.416,1.416,0,1,1,0,2.832Zm0-5.664H7.552a1.416,1.416,0,1,1,0-2.832h2.832a1.416,1.416,0,1,1,0,2.832Zm0-5.664H7.552a1.416,1.416,0,1,1,0-2.832h2.832a1.416,1.416,0,1,1,0,2.832Zm0-5.664H7.552a1.416,1.416,0,0,1,0-2.832h2.832a1.416,1.416,0,1,1,0,2.832Zm9.44,16.992H16.992a1.416,1.416,0,1,1,0-2.832h2.832a1.416,1.416,0,1,1,0,2.832Zm0-5.664H16.992a1.416,1.416,0,1,1,0-2.832h2.832a1.416,1.416,0,1,1,0,2.832Zm0-5.664H16.992a1.416,1.416,0,1,1,0-2.832h2.832a1.416,1.416,0,1,1,0,2.832Zm0-5.664H16.992a1.416,1.416,0,1,1,0-2.832h2.832a1.416,1.416,0,1,1,0,2.832Z" transform="translate(0 -0.178)" fill="#2c3a56"/>
  <path id="Path_12912" data-name="Path 12912" d="M28.942,12.166,15.5,9.351V37.008H28.244a3.308,3.308,0,0,0,3.3-3.3V15.394A3.288,3.288,0,0,0,28.942,12.166ZM24.468,31.344H21.636a1.416,1.416,0,0,1,0-2.832h2.832a1.416,1.416,0,1,1,0,2.832Zm0-5.664H21.636a1.416,1.416,0,0,1,0-2.832h2.832a1.416,1.416,0,1,1,0,2.832Zm0-5.664H21.636a1.416,1.416,0,0,1,0-2.832h2.832a1.416,1.416,0,1,1,0,2.832Z" transform="translate(13.764 7.967)" fill="#2c3a56"/>
</svg>
