<svg id="Visa-light" xmlns="http://www.w3.org/2000/svg" width="55" height="33" viewBox="0 0 55 33">
  <rect id="Rectangle" width="55" height="33" rx="4" fill="#fff"/>
  <path id="Fill_1" data-name="Fill 1" d="M0,10.544,1.7,0H4.416l-1.7,10.544Z" transform="translate(22.935 11.317)" fill="#26337a"/>
  <path id="Fill_2" data-name="Fill 2" d="M8.152.442A6.717,6.717,0,0,0,5.718,0C3.032,0,1.141,1.431,1.125,3.48,1.108,5,2.474,5.84,3.5,6.344c1.059.516,1.414.847,1.41,1.308-.007.706-.845,1.03-1.626,1.03A5.441,5.441,0,0,1,.729,8.129L.38,7.962,0,10.322a8.2,8.2,0,0,0,3.027.562c2.855,0,4.71-1.414,4.731-3.6.01-1.2-.714-2.113-2.282-2.865C4.527,3.928,3.944,3.6,3.951,3.11c0-.438.492-.907,1.556-.907a4.765,4.765,0,0,1,2.033.405l.244.121Z" transform="translate(27.354 11.133)" fill="#26337a"/>
  <path id="Fill_3" data-name="Fill 3" d="M2.854,10.537H0L4.035.874A1.339,1.339,0,0,1,5.459,0h2.1l2.2,10.536H7.236c0-.022-.254-1.23-.331-1.58l-1.912,0H4.987l-1.562,0c-.1.283-.567,1.572-.571,1.585ZM5.289,3.848v0c-.088.241-.869,2.372-1.081,2.943H6.462c-.1-.509-.607-2.939-.628-3.042L5.65,2.842c-.072.207-.174.487-.249.691-.081.222-.114.312-.113.316Z" transform="translate(34.918 11.328)" fill="#26337a"/>
  <path id="Fill_4" data-name="Fill 4" d="M6.708,0,4.048,7.188,3.764,5.727A8.1,8.1,0,0,0,0,1.3l2.433,9.221,2.875,0L9.587,0Z" transform="translate(13.948 11.326)" fill="#26337a"/>
  <path id="Fill_5" data-name="Fill 5" d="M4.417,0H.036L0,.218A9.12,9.12,0,0,1,6.6,5.734L5.649.89A1.141,1.141,0,0,0,4.417,0Z" transform="translate(11.111 11.319)" fill="#ec982d"/>
</svg>
