<svg id="_003-whatsapp" data-name="003-whatsapp" xmlns="http://www.w3.org/2000/svg" width="33.79" height="33.79" viewBox="0 0 33.79 33.79">
  <path id="Path_502" data-name="Path 502" d="M16.895,0A16.895,16.895,0,1,0,33.79,16.895,16.9,16.9,0,0,0,16.895,0Zm.358,26.732h0a10.108,10.108,0,0,1-4.832-1.23l-5.36,1.406,1.435-5.238a10.112,10.112,0,1,1,8.762,5.063Zm0,0" fill="#c3cad8"/>
  <path id="Path_503" data-name="Path 503" d="M142.479,124.469a8.406,8.406,0,0,0-7.123,12.873l.2.318-.849,3.1,3.181-.834.307.182a8.391,8.391,0,0,0,4.278,1.171h0a8.4,8.4,0,0,0,0-16.81Zm4.944,12.014a2.6,2.6,0,0,1-1.705,1.2,3.467,3.467,0,0,1-1.591-.1,14.59,14.59,0,0,1-1.441-.532,11.262,11.262,0,0,1-4.316-3.814,4.913,4.913,0,0,1-1.032-2.613,2.832,2.832,0,0,1,.884-2.107.929.929,0,0,1,.674-.316c.168,0,.337,0,.484.009s.363-.059.568.434.716,1.749.779,1.875a.466.466,0,0,1,.021.443,7.205,7.205,0,0,1-.632.864c-.112.139-.258.263-.111.516a7.616,7.616,0,0,0,1.406,1.75,6.907,6.907,0,0,0,2.032,1.254c.252.126.4.105.547-.063s.632-.738.8-.99.337-.211.568-.126,1.474.7,1.726.822.421.19.484.3a2.107,2.107,0,0,1-.147,1.2Zm0,0" transform="translate(-125.223 -116.255)" fill="#c3cad8"/>
</svg>
